<?xml version="1.0" encoding="UTF-8"?>
<svg width="512" height="512" viewBox="0 0 512 512" fill="none" xmlns="http://www.w3.org/2000/svg" role="img" aria-labelledby="title desc">
  <title id="title">FocusdBot</title>
  <desc id="desc">A friendly robot mascot with glowing antenna and rounded head, designed for the FocusdBot macOS app.</desc>
  <defs>
    <radialGradient id="bgGrad" cx="50%" cy="35%" r="70%">
      <stop offset="0%" stop-color="#0E1C37"/>
      <stop offset="50%" stop-color="#0A1326"/>
      <stop offset="100%" stop-color="#050810"/>
    </radialGradient>
    <linearGradient id="ringGrad" x1="0%" y1="0%" x2="100%" y2="100%">
      <stop offset="0%" stop-color="#7CFFD4"/>
      <stop offset="100%" stop-color="#5AA9FF"/>
    </linearGradient>
    <linearGradient id="headGrad" x1="0%" y1="0%" x2="0%" y2="100%">
      <stop offset="0%" stop-color="#2B87FF"/>
      <stop offset="100%" stop-color="#1B3A73"/>
    </linearGradient>
    <filter id="glow" x="-50%" y="-50%" width="200%" height="200%">
      <feGaussianBlur stdDeviation="8" result="blur"/>
      <feMerge>
        <feMergeNode in="blur"/>
        <feMergeNode in="SourceGraphic"/>
      </feMerge>
    </filter>
    <filter id="soft" x="-50%" y="-50%" width="200%" height="200%">
      <feGaussianBlur stdDeviation="3"/>
    </filter>
  </defs>

  <!-- Background -->
  <rect width="512" height="512" rx="24" fill="url(#bgGrad)"/>

  <!-- Accent ring -->
  <g transform="translate(256,256)">
    <circle r="178" fill="none" stroke="url(#ringGrad)" stroke-width="8" opacity="0.55"/>
    <circle r="178" fill="none" stroke="#8BFFDA" stroke-width="2" opacity="0.25" filter="url(#soft)"/>
  </g>

  <!-- Robot group -->
  <g transform="translate(256,262)">
    <!-- Antenna glow -->
    <circle cx="0" cy="-136" r="14" fill="#FFFFFF" opacity="0.95" filter="url(#glow)"/>
    <circle cx="0" cy="-136" r="8" fill="#FFFFFF"/>
    <rect x="-2.5" y="-128" width="5" height="22" rx="2.5" fill="url(#headGrad)"/>

    <!-- Head shadow -->
    <ellipse cx="0" cy="62" rx="120" ry="18" fill="#000" opacity="0.25" filter="url(#soft)"/>

    <!-- Head -->
    <rect x="-120" y="-88" width="240" height="170" rx="28" fill="url(#headGrad)" stroke="#1E2E54" stroke-width="2"/>

    <!-- Inner shine -->
    <rect x="-116" y="-84" width="232" height="70" rx="24" fill="#FFFFFF" opacity="0.06"/>

    <!-- Eyes -->
    <g>
      <rect x="-70" y="-28" width="56" height="18" rx="9" fill="#FFFFFF"/>
      <rect x="14"  y="-28" width="56" height="18" rx="9" fill="#FFFFFF"/>
    </g>

    <!-- Mouth (neutral) -->
    <rect x="-20" y="12" width="40" height="6" rx="3" fill="#EEF6FF" opacity="0.9"/>
  </g>

  <!-- Subtle corners glow -->
  <g opacity="0.25" filter="url(#soft)">
    <circle cx="64" cy="64" r="60" fill="#2B87FF"/>
    <circle cx="448" cy="448" r="70" fill="#7CFFD4"/>
  </g>
</svg>


